<mxfile host="drawio-plugin" modified="2022-11-15T06:53:10.503Z" agent="5.0 (Windows NT 6.2; Win64; x64) AppleWebKit/537.36 (KHTML, like Gecko) Chrome/98.0.4758.102 Safari/537.36" etag="AiDiFWG552J4wYMFGDRC" version="15.5.4" type="embed" pages="5"><diagram id="hvb5-evO5CEhQdUVUnic" name="USEcase "><mxGraphModel dx="858" dy="5296" grid="1" gridSize="10" guides="1" tooltips="1" connect="1" arrows="1" fold="1" page="1" pageScale="1" pageWidth="3300" pageHeight="4681" math="0" shadow="0"><root><mxCell id="0"/><mxCell id="1" parent="0"/><mxCell id="cM7lnOa8xKsac278n9ST-1" value="" style="whiteSpace=wrap;html=1;aspect=fixed;" parent="1" vertex="1"><mxGeometry x="530" y="-10" width="1010" height="1010" as="geometry"/></mxCell><mxCell id="SN7ESuGg-9dV5CbwiE7h-20" value="상품DB" style="shape=umlFrame;whiteSpace=wrap;html=1;" parent="1" vertex="1"><mxGeometry x="650" y="30" width="540" height="200" as="geometry"/></mxCell><mxCell id="SN7ESuGg-9dV5CbwiE7h-22" value="회원DB" style="shape=umlFrame;whiteSpace=wrap;html=1;" parent="1" vertex="1"><mxGeometry x="610" y="450" width="870" height="270" as="geometry"/></mxCell><mxCell id="Kv26vEHC08VBiixHVHI5-12" style="rounded=0;orthogonalLoop=1;jettySize=auto;html=1;edgeStyle=orthogonalEdgeStyle;" parent="1" source="Kv26vEHC08VBiixHVHI5-2" target="Kv26vEHC08VBiixHVHI5-6" edge="1"><mxGeometry relative="1" as="geometry"><Array as="points"><mxPoint x="1085" y="210"/><mxPoint x="1085" y="210"/></Array></mxGeometry></mxCell><mxCell id="Kv26vEHC08VBiixHVHI5-13" style="edgeStyle=orthogonalEdgeStyle;rounded=0;orthogonalLoop=1;jettySize=auto;html=1;" parent="1" source="Kv26vEHC08VBiixHVHI5-2" target="Kv26vEHC08VBiixHVHI5-7" edge="1"><mxGeometry relative="1" as="geometry"><Array as="points"><mxPoint x="790" y="405"/></Array><mxPoint x="887.1071665146746" y="565.0526315789475" as="targetPoint"/></mxGeometry></mxCell><mxCell id="Kv26vEHC08VBiixHVHI5-2" value="직원" style="shape=umlActor;verticalLabelPosition=bottom;verticalAlign=top;html=1;" parent="1" vertex="1"><mxGeometry x="1070" y="300" width="30" height="60" as="geometry"/></mxCell><mxCell id="Kv26vEHC08VBiixHVHI5-14" style="edgeStyle=orthogonalEdgeStyle;rounded=0;orthogonalLoop=1;jettySize=auto;html=1;" parent="1" source="Kv26vEHC08VBiixHVHI5-3" target="Kv26vEHC08VBiixHVHI5-8" edge="1"><mxGeometry relative="1" as="geometry"><Array as="points"><mxPoint x="825" y="210"/><mxPoint x="825" y="210"/></Array></mxGeometry></mxCell><mxCell id="Kv26vEHC08VBiixHVHI5-15" style="edgeStyle=orthogonalEdgeStyle;rounded=0;orthogonalLoop=1;jettySize=auto;html=1;" parent="1" source="Kv26vEHC08VBiixHVHI5-3" target="Kv26vEHC08VBiixHVHI5-7" edge="1"><mxGeometry relative="1" as="geometry"><Array as="points"><mxPoint x="825" y="390"/><mxPoint x="780" y="390"/></Array></mxGeometry></mxCell><mxCell id="Kv26vEHC08VBiixHVHI5-3" value="고객" style="shape=umlActor;verticalLabelPosition=bottom;verticalAlign=top;html=1;" parent="1" vertex="1"><mxGeometry x="810" y="290" width="30" height="60" as="geometry"/></mxCell><mxCell id="JjDydGUEUOhYbfb6GzUT-12" value="&amp;lt;&amp;lt;Include&amp;gt;&amp;gt;" style="edgeStyle=orthogonalEdgeStyle;rounded=0;orthogonalLoop=1;jettySize=auto;html=1;dashed=1;" parent="1" source="Kv26vEHC08VBiixHVHI5-6" target="Kv26vEHC08VBiixHVHI5-9" edge="1"><mxGeometry relative="1" as="geometry"/></mxCell><mxCell id="Kv26vEHC08VBiixHVHI5-6" value="상품관리" style="ellipse;whiteSpace=wrap;html=1;" parent="1" vertex="1"><mxGeometry x="1055" y="130" width="60" height="60" as="geometry"/></mxCell><mxCell id="JjDydGUEUOhYbfb6GzUT-13" value="&amp;lt;&amp;lt;Include&amp;gt;&amp;gt;" style="edgeStyle=orthogonalEdgeStyle;rounded=0;orthogonalLoop=1;jettySize=auto;html=1;dashed=1;" parent="1" source="Kv26vEHC08VBiixHVHI5-7" target="Kv26vEHC08VBiixHVHI5-9" edge="1"><mxGeometry relative="1" as="geometry"><Array as="points"><mxPoint x="840" y="540"/><mxPoint x="840" y="480"/><mxPoint x="1240" y="480"/><mxPoint x="1240" y="565"/></Array></mxGeometry></mxCell><mxCell id="Kv26vEHC08VBiixHVHI5-7" value="회원&lt;br&gt;" style="ellipse;whiteSpace=wrap;html=1;" parent="1" vertex="1"><mxGeometry x="750" y="510" width="60" height="60" as="geometry"/></mxCell><mxCell id="Kv26vEHC08VBiixHVHI5-8" value="상품조회" style="ellipse;whiteSpace=wrap;html=1;" parent="1" vertex="1"><mxGeometry x="795" y="130" width="60" height="60" as="geometry"/></mxCell><mxCell id="Kv26vEHC08VBiixHVHI5-9" value="인증" style="ellipse;whiteSpace=wrap;html=1;" parent="1" vertex="1"><mxGeometry x="1270" y="530" width="80" height="70" as="geometry"/></mxCell><mxCell id="JjDydGUEUOhYbfb6GzUT-10" value="&amp;lt;&amp;lt;Extends&amp;gt;&amp;gt;" style="edgeStyle=orthogonalEdgeStyle;rounded=0;orthogonalLoop=1;jettySize=auto;html=1;entryX=1;entryY=0.5;entryDx=0;entryDy=0;dashed=1;" parent="1" source="Kv26vEHC08VBiixHVHI5-10" target="Kv26vEHC08VBiixHVHI5-67" edge="1"><mxGeometry relative="1" as="geometry"/></mxCell><mxCell id="Kv26vEHC08VBiixHVHI5-10" value="결제" style="ellipse;whiteSpace=wrap;html=1;" parent="1" vertex="1"><mxGeometry x="1050" y="500" width="60" height="60" as="geometry"/></mxCell><mxCell id="Kv26vEHC08VBiixHVHI5-11" value="장바구니 담기" style="ellipse;whiteSpace=wrap;html=1;rotation=0;" parent="1" vertex="1"><mxGeometry x="680" y="130" width="60" height="60" as="geometry"/></mxCell><mxCell id="Kv26vEHC08VBiixHVHI5-30" style="edgeStyle=orthogonalEdgeStyle;rounded=0;orthogonalLoop=1;jettySize=auto;html=1;" parent="1" source="Kv26vEHC08VBiixHVHI5-28" target="Kv26vEHC08VBiixHVHI5-8" edge="1"><mxGeometry relative="1" as="geometry"><Array as="points"><mxPoint x="785" y="110"/><mxPoint x="825" y="110"/></Array></mxGeometry></mxCell><mxCell id="Kv26vEHC08VBiixHVHI5-28" value="전체" style="ellipse;whiteSpace=wrap;html=1;" parent="1" vertex="1"><mxGeometry x="765" y="50" width="40" height="40" as="geometry"/></mxCell><mxCell id="Kv26vEHC08VBiixHVHI5-31" style="edgeStyle=orthogonalEdgeStyle;rounded=0;orthogonalLoop=1;jettySize=auto;html=1;" parent="1" source="Kv26vEHC08VBiixHVHI5-29" target="Kv26vEHC08VBiixHVHI5-8" edge="1"><mxGeometry relative="1" as="geometry"><Array as="points"><mxPoint x="865" y="110"/><mxPoint x="825" y="110"/></Array></mxGeometry></mxCell><mxCell id="Kv26vEHC08VBiixHVHI5-29" value="검색" style="ellipse;whiteSpace=wrap;html=1;" parent="1" vertex="1"><mxGeometry x="845" y="50" width="40" height="40" as="geometry"/></mxCell><mxCell id="Kv26vEHC08VBiixHVHI5-35" style="edgeStyle=orthogonalEdgeStyle;rounded=0;orthogonalLoop=1;jettySize=auto;html=1;" parent="1" source="Kv26vEHC08VBiixHVHI5-32" target="Kv26vEHC08VBiixHVHI5-6" edge="1"><mxGeometry relative="1" as="geometry"/></mxCell><mxCell id="Kv26vEHC08VBiixHVHI5-32" value="추가" style="ellipse;whiteSpace=wrap;html=1;" parent="1" vertex="1"><mxGeometry x="1125" y="60" width="40" height="40" as="geometry"/></mxCell><mxCell id="Kv26vEHC08VBiixHVHI5-34" style="edgeStyle=orthogonalEdgeStyle;rounded=0;orthogonalLoop=1;jettySize=auto;html=1;" parent="1" source="Kv26vEHC08VBiixHVHI5-33" target="Kv26vEHC08VBiixHVHI5-6" edge="1"><mxGeometry relative="1" as="geometry"><Array as="points"><mxPoint x="1085" y="80"/></Array></mxGeometry></mxCell><mxCell id="Kv26vEHC08VBiixHVHI5-33" value="수정" style="ellipse;whiteSpace=wrap;html=1;" parent="1" vertex="1"><mxGeometry x="1005" y="60" width="40" height="40" as="geometry"/></mxCell><mxCell id="Kv26vEHC08VBiixHVHI5-37" style="edgeStyle=orthogonalEdgeStyle;rounded=0;orthogonalLoop=1;jettySize=auto;html=1;" parent="1" source="Kv26vEHC08VBiixHVHI5-36" target="Kv26vEHC08VBiixHVHI5-7" edge="1"><mxGeometry relative="1" as="geometry"/></mxCell><mxCell id="Kv26vEHC08VBiixHVHI5-36" value="가입" style="ellipse;whiteSpace=wrap;html=1;" parent="1" vertex="1"><mxGeometry x="730" y="630" width="40" height="40" as="geometry"/></mxCell><mxCell id="Kv26vEHC08VBiixHVHI5-39" style="edgeStyle=orthogonalEdgeStyle;rounded=0;orthogonalLoop=1;jettySize=auto;html=1;" parent="1" source="Kv26vEHC08VBiixHVHI5-38" target="Kv26vEHC08VBiixHVHI5-7" edge="1"><mxGeometry relative="1" as="geometry"/></mxCell><mxCell id="Kv26vEHC08VBiixHVHI5-38" value="수정" style="ellipse;whiteSpace=wrap;html=1;" parent="1" vertex="1"><mxGeometry x="780" y="630" width="40" height="40" as="geometry"/></mxCell><mxCell id="Kv26vEHC08VBiixHVHI5-41" style="edgeStyle=orthogonalEdgeStyle;rounded=0;orthogonalLoop=1;jettySize=auto;html=1;" parent="1" source="Kv26vEHC08VBiixHVHI5-40" target="Kv26vEHC08VBiixHVHI5-7" edge="1"><mxGeometry relative="1" as="geometry"><Array as="points"><mxPoint x="850" y="600"/><mxPoint x="780" y="600"/></Array></mxGeometry></mxCell><mxCell id="Kv26vEHC08VBiixHVHI5-40" value="조회" style="ellipse;whiteSpace=wrap;html=1;" parent="1" vertex="1"><mxGeometry x="830" y="630" width="40" height="40" as="geometry"/></mxCell><mxCell id="gFiut0iDrLe7WYOQsWxN-4" style="edgeStyle=orthogonalEdgeStyle;rounded=0;orthogonalLoop=1;jettySize=auto;html=1;" parent="1" source="Kv26vEHC08VBiixHVHI5-45" target="Kv26vEHC08VBiixHVHI5-7" edge="1"><mxGeometry relative="1" as="geometry"><Array as="points"><mxPoint x="700" y="600"/><mxPoint x="780" y="600"/></Array></mxGeometry></mxCell><mxCell id="Kv26vEHC08VBiixHVHI5-45" value="삭제" style="ellipse;whiteSpace=wrap;html=1;" parent="1" vertex="1"><mxGeometry x="680" y="630" width="40" height="40" as="geometry"/></mxCell><mxCell id="JjDydGUEUOhYbfb6GzUT-7" style="edgeStyle=orthogonalEdgeStyle;rounded=0;orthogonalLoop=1;jettySize=auto;html=1;" parent="1" source="Kv26vEHC08VBiixHVHI5-56" target="Kv26vEHC08VBiixHVHI5-9" edge="1"><mxGeometry relative="1" as="geometry"><Array as="points"><mxPoint x="1400" y="570"/><mxPoint x="1400" y="570"/></Array></mxGeometry></mxCell><mxCell id="Kv26vEHC08VBiixHVHI5-56" value="모바일" style="ellipse;whiteSpace=wrap;html=1;direction=south;" parent="1" vertex="1"><mxGeometry x="1415" y="545" width="40" height="40" as="geometry"/></mxCell><mxCell id="UOlsy7yWXwOPzBkwPQhx-1" value="" style="edgeStyle=orthogonalEdgeStyle;rounded=0;orthogonalLoop=1;jettySize=auto;html=1;" parent="1" source="Kv26vEHC08VBiixHVHI5-67" target="tokyzkb4w2ci1-rdvXX9-3" edge="1"><mxGeometry relative="1" as="geometry"><Array as="points"/></mxGeometry></mxCell><mxCell id="Kv26vEHC08VBiixHVHI5-67" value="조회" style="ellipse;whiteSpace=wrap;html=1;" parent="1" vertex="1"><mxGeometry x="950" y="630" width="40" height="40" as="geometry"/></mxCell><mxCell id="tokyzkb4w2ci1-rdvXX9-2" value="extends" style="html=1;verticalAlign=bottom;endArrow=open;dashed=1;endSize=8;rounded=0;edgeStyle=orthogonalEdgeStyle;" parent="1" source="Kv26vEHC08VBiixHVHI5-11" target="Kv26vEHC08VBiixHVHI5-8" edge="1"><mxGeometry x="-0.0162" y="1" relative="1" as="geometry"><mxPoint x="775" y="170" as="sourcePoint"/><mxPoint x="1315.0000000000173" y="170" as="targetPoint"/><mxPoint as="offset"/></mxGeometry></mxCell><mxCell id="tokyzkb4w2ci1-rdvXX9-3" value="장바구니&lt;br&gt;관리" style="ellipse;whiteSpace=wrap;html=1;" parent="1" vertex="1"><mxGeometry x="915" y="510" width="60" height="60" as="geometry"/></mxCell><mxCell id="tokyzkb4w2ci1-rdvXX9-15" style="edgeStyle=orthogonalEdgeStyle;rounded=0;orthogonalLoop=1;jettySize=auto;html=1;" parent="1" source="Kv26vEHC08VBiixHVHI5-3" target="tokyzkb4w2ci1-rdvXX9-3" edge="1"><mxGeometry relative="1" as="geometry"><mxPoint x="950" y="320" as="sourcePoint"/><mxPoint x="649.6757273574524" y="292.0663531547656" as="targetPoint"/><Array as="points"><mxPoint x="825" y="390"/><mxPoint x="945" y="390"/></Array></mxGeometry></mxCell><mxCell id="JjDydGUEUOhYbfb6GzUT-8" style="edgeStyle=orthogonalEdgeStyle;rounded=0;orthogonalLoop=1;jettySize=auto;html=1;" parent="1" source="UOlsy7yWXwOPzBkwPQhx-2" target="tokyzkb4w2ci1-rdvXX9-3" edge="1"><mxGeometry relative="1" as="geometry"/></mxCell><mxCell id="UOlsy7yWXwOPzBkwPQhx-2" value="삭제" style="ellipse;whiteSpace=wrap;html=1;" parent="1" vertex="1"><mxGeometry x="900" y="630" width="40" height="40" as="geometry"/></mxCell><mxCell id="Kv26vEHC08VBiixHVHI5-62" value="카드" style="ellipse;whiteSpace=wrap;html=1;" parent="1" vertex="1"><mxGeometry x="1150" y="620.04" width="40" height="40" as="geometry"/></mxCell><mxCell id="UOlsy7yWXwOPzBkwPQhx-5" value="" style="edgeStyle=orthogonalEdgeStyle;rounded=0;orthogonalLoop=1;jettySize=auto;html=1;endArrow=none;startArrow=open;startFill=0;" parent="1" source="Kv26vEHC08VBiixHVHI5-10" target="Kv26vEHC08VBiixHVHI5-62" edge="1"><mxGeometry relative="1" as="geometry"><mxPoint x="1129.9999684939976" y="529.9965217391305" as="sourcePoint"/><mxPoint x="1000" y="580.04" as="targetPoint"/><Array as="points"><mxPoint x="1140" y="530"/><mxPoint x="1140" y="580"/><mxPoint x="1170" y="580"/></Array></mxGeometry></mxCell></root></mxGraphModel></diagram><diagram id="bULfts8UCHqkT_8KDw2p" name="Class"><mxGraphModel dx="859" dy="615" grid="1" gridSize="10" guides="1" tooltips="1" connect="1" arrows="1" fold="1" page="1" pageScale="1" pageWidth="3300" pageHeight="4681" math="0" shadow="0"><root><mxCell id="0"/><mxCell id="1" parent="0"/><mxCell id="Th7XL-g5wkBTI_k0jqvb-1" value="MemAdmin" style="swimlane;fontStyle=1;align=center;verticalAlign=top;childLayout=stackLayout;horizontal=1;startSize=26;horizontalStack=0;resizeParent=1;resizeParentMax=0;resizeLast=0;collapsible=1;marginBottom=0;" parent="1" vertex="1"><mxGeometry x="950" y="490" width="160" height="112" as="geometry"/></mxCell><mxCell id="Th7XL-g5wkBTI_k0jqvb-2" value="- mcode : int;" style="text;strokeColor=none;fillColor=none;align=left;verticalAlign=top;spacingLeft=4;spacingRight=4;overflow=hidden;rotatable=0;points=[[0,0.5],[1,0.5]];portConstraint=eastwest;" parent="Th7XL-g5wkBTI_k0jqvb-1" vertex="1"><mxGeometry y="26" width="160" height="26" as="geometry"/></mxCell><mxCell id="FIO6IWRy26lA9qaqWzXT-32" value="- mname : String" style="text;strokeColor=none;fillColor=none;align=left;verticalAlign=top;spacingLeft=4;spacingRight=4;overflow=hidden;rotatable=0;points=[[0,0.5],[1,0.5]];portConstraint=eastwest;" parent="Th7XL-g5wkBTI_k0jqvb-1" vertex="1"><mxGeometry y="52" width="160" height="26" as="geometry"/></mxCell><mxCell id="Th7XL-g5wkBTI_k0jqvb-3" value="" style="line;strokeWidth=1;fillColor=none;align=left;verticalAlign=middle;spacingTop=-1;spacingLeft=3;spacingRight=3;rotatable=0;labelPosition=right;points=[];portConstraint=eastwest;strokeColor=inherit;" parent="Th7XL-g5wkBTI_k0jqvb-1" vertex="1"><mxGeometry y="78" width="160" height="8" as="geometry"/></mxCell><mxCell id="Th7XL-g5wkBTI_k0jqvb-4" value="+ method(type): type" style="text;strokeColor=none;fillColor=none;align=left;verticalAlign=top;spacingLeft=4;spacingRight=4;overflow=hidden;rotatable=0;points=[[0,0.5],[1,0.5]];portConstraint=eastwest;" parent="Th7XL-g5wkBTI_k0jqvb-1" vertex="1"><mxGeometry y="86" width="160" height="26" as="geometry"/></mxCell><mxCell id="Th7XL-g5wkBTI_k0jqvb-5" value="product" style="swimlane;fontStyle=1;align=center;verticalAlign=top;childLayout=stackLayout;horizontal=1;startSize=26;horizontalStack=0;resizeParent=1;resizeParentMax=0;resizeLast=0;collapsible=1;marginBottom=0;" parent="1" vertex="1"><mxGeometry x="540" y="490" width="160" height="164" as="geometry"/></mxCell><mxCell id="FIO6IWRy26lA9qaqWzXT-27" value="- pcode : int" style="text;strokeColor=none;fillColor=none;align=left;verticalAlign=top;spacingLeft=4;spacingRight=4;overflow=hidden;rotatable=0;points=[[0,0.5],[1,0.5]];portConstraint=eastwest;" parent="Th7XL-g5wkBTI_k0jqvb-5" vertex="1"><mxGeometry y="26" width="160" height="26" as="geometry"/></mxCell><mxCell id="Th7XL-g5wkBTI_k0jqvb-6" value="- pname : String&#10;" style="text;strokeColor=none;fillColor=none;align=left;verticalAlign=top;spacingLeft=4;spacingRight=4;overflow=hidden;rotatable=0;points=[[0,0.5],[1,0.5]];portConstraint=eastwest;" parent="Th7XL-g5wkBTI_k0jqvb-5" vertex="1"><mxGeometry y="52" width="160" height="26" as="geometry"/></mxCell><mxCell id="FIO6IWRy26lA9qaqWzXT-28" value="- sort : String" style="text;strokeColor=none;fillColor=none;align=left;verticalAlign=top;spacingLeft=4;spacingRight=4;overflow=hidden;rotatable=0;points=[[0,0.5],[1,0.5]];portConstraint=eastwest;" parent="Th7XL-g5wkBTI_k0jqvb-5" vertex="1"><mxGeometry y="78" width="160" height="26" as="geometry"/></mxCell><mxCell id="FIO6IWRy26lA9qaqWzXT-48" value="- price : int" style="text;strokeColor=none;fillColor=none;align=left;verticalAlign=top;spacingLeft=4;spacingRight=4;overflow=hidden;rotatable=0;points=[[0,0.5],[1,0.5]];portConstraint=eastwest;" parent="Th7XL-g5wkBTI_k0jqvb-5" vertex="1"><mxGeometry y="104" width="160" height="26" as="geometry"/></mxCell><mxCell id="Th7XL-g5wkBTI_k0jqvb-7" value="" style="line;strokeWidth=1;fillColor=none;align=left;verticalAlign=middle;spacingTop=-1;spacingLeft=3;spacingRight=3;rotatable=0;labelPosition=right;points=[];portConstraint=eastwest;strokeColor=inherit;" parent="Th7XL-g5wkBTI_k0jqvb-5" vertex="1"><mxGeometry y="130" width="160" height="8" as="geometry"/></mxCell><mxCell id="Th7XL-g5wkBTI_k0jqvb-8" value="+ method(type): type" style="text;strokeColor=none;fillColor=none;align=left;verticalAlign=top;spacingLeft=4;spacingRight=4;overflow=hidden;rotatable=0;points=[[0,0.5],[1,0.5]];portConstraint=eastwest;" parent="Th7XL-g5wkBTI_k0jqvb-5" vertex="1"><mxGeometry y="138" width="160" height="26" as="geometry"/></mxCell><mxCell id="FIO6IWRy26lA9qaqWzXT-1" value="Member" style="swimlane;fontStyle=1;align=center;verticalAlign=top;childLayout=stackLayout;horizontal=1;startSize=26;horizontalStack=0;resizeParent=1;resizeParentMax=0;resizeLast=0;collapsible=1;marginBottom=0;" parent="1" vertex="1"><mxGeometry x="570" y="870" width="160" height="134" as="geometry"/></mxCell><mxCell id="FIO6IWRy26lA9qaqWzXT-29" value="- mcode : int" style="text;strokeColor=none;fillColor=none;align=left;verticalAlign=top;spacingLeft=4;spacingRight=4;overflow=hidden;rotatable=0;points=[[0,0.5],[1,0.5]];portConstraint=eastwest;" parent="FIO6IWRy26lA9qaqWzXT-1" vertex="1"><mxGeometry y="26" width="160" height="22" as="geometry"/></mxCell><mxCell id="FIO6IWRy26lA9qaqWzXT-2" value="- mname : String" style="text;strokeColor=none;fillColor=none;align=left;verticalAlign=top;spacingLeft=4;spacingRight=4;overflow=hidden;rotatable=0;points=[[0,0.5],[1,0.5]];portConstraint=eastwest;" parent="FIO6IWRy26lA9qaqWzXT-1" vertex="1"><mxGeometry y="48" width="160" height="26" as="geometry"/></mxCell><mxCell id="FIO6IWRy26lA9qaqWzXT-25" value="- addr : String" style="text;strokeColor=none;fillColor=none;align=left;verticalAlign=top;spacingLeft=4;spacingRight=4;overflow=hidden;rotatable=0;points=[[0,0.5],[1,0.5]];portConstraint=eastwest;" parent="FIO6IWRy26lA9qaqWzXT-1" vertex="1"><mxGeometry y="74" width="160" height="26" as="geometry"/></mxCell><mxCell id="FIO6IWRy26lA9qaqWzXT-3" value="" style="line;strokeWidth=1;fillColor=none;align=left;verticalAlign=middle;spacingTop=-1;spacingLeft=3;spacingRight=3;rotatable=0;labelPosition=right;points=[];portConstraint=eastwest;strokeColor=inherit;" parent="FIO6IWRy26lA9qaqWzXT-1" vertex="1"><mxGeometry y="100" width="160" height="8" as="geometry"/></mxCell><mxCell id="FIO6IWRy26lA9qaqWzXT-4" value="+ method(type): type" style="text;strokeColor=none;fillColor=none;align=left;verticalAlign=top;spacingLeft=4;spacingRight=4;overflow=hidden;rotatable=0;points=[[0,0.5],[1,0.5]];portConstraint=eastwest;" parent="FIO6IWRy26lA9qaqWzXT-1" vertex="1"><mxGeometry y="108" width="160" height="26" as="geometry"/></mxCell><mxCell id="FIO6IWRy26lA9qaqWzXT-9" value="Keeping" style="swimlane;fontStyle=1;align=center;verticalAlign=top;childLayout=stackLayout;horizontal=1;startSize=26;horizontalStack=0;resizeParent=1;resizeParentMax=0;resizeLast=0;collapsible=1;marginBottom=0;" parent="1" vertex="1"><mxGeometry x="960" y="623" width="160" height="164" as="geometry"/></mxCell><mxCell id="FIO6IWRy26lA9qaqWzXT-10" value="- pcode : int" style="text;strokeColor=none;fillColor=none;align=left;verticalAlign=top;spacingLeft=4;spacingRight=4;overflow=hidden;rotatable=0;points=[[0,0.5],[1,0.5]];portConstraint=eastwest;" parent="FIO6IWRy26lA9qaqWzXT-9" vertex="1"><mxGeometry y="26" width="160" height="26" as="geometry"/></mxCell><mxCell id="FIO6IWRy26lA9qaqWzXT-33" value="- pname : String&#10;" style="text;strokeColor=none;fillColor=none;align=left;verticalAlign=top;spacingLeft=4;spacingRight=4;overflow=hidden;rotatable=0;points=[[0,0.5],[1,0.5]];portConstraint=eastwest;" parent="FIO6IWRy26lA9qaqWzXT-9" vertex="1"><mxGeometry y="52" width="160" height="26" as="geometry"/></mxCell><mxCell id="FIO6IWRy26lA9qaqWzXT-34" value="- sort : String" style="text;strokeColor=none;fillColor=none;align=left;verticalAlign=top;spacingLeft=4;spacingRight=4;overflow=hidden;rotatable=0;points=[[0,0.5],[1,0.5]];portConstraint=eastwest;" parent="FIO6IWRy26lA9qaqWzXT-9" vertex="1"><mxGeometry y="78" width="160" height="26" as="geometry"/></mxCell><mxCell id="FIO6IWRy26lA9qaqWzXT-50" value="- amount : int" style="text;strokeColor=none;fillColor=none;align=left;verticalAlign=top;spacingLeft=4;spacingRight=4;overflow=hidden;rotatable=0;points=[[0,0.5],[1,0.5]];portConstraint=eastwest;" parent="FIO6IWRy26lA9qaqWzXT-9" vertex="1"><mxGeometry y="104" width="160" height="26" as="geometry"/></mxCell><mxCell id="FIO6IWRy26lA9qaqWzXT-11" value="" style="line;strokeWidth=1;fillColor=none;align=left;verticalAlign=middle;spacingTop=-1;spacingLeft=3;spacingRight=3;rotatable=0;labelPosition=right;points=[];portConstraint=eastwest;strokeColor=inherit;" parent="FIO6IWRy26lA9qaqWzXT-9" vertex="1"><mxGeometry y="130" width="160" height="8" as="geometry"/></mxCell><mxCell id="FIO6IWRy26lA9qaqWzXT-12" value="+ method(type): type" style="text;strokeColor=none;fillColor=none;align=left;verticalAlign=top;spacingLeft=4;spacingRight=4;overflow=hidden;rotatable=0;points=[[0,0.5],[1,0.5]];portConstraint=eastwest;" parent="FIO6IWRy26lA9qaqWzXT-9" vertex="1"><mxGeometry y="138" width="160" height="26" as="geometry"/></mxCell><mxCell id="FIO6IWRy26lA9qaqWzXT-35" value="productAdmin" style="swimlane;fontStyle=1;align=center;verticalAlign=top;childLayout=stackLayout;horizontal=1;startSize=26;horizontalStack=0;resizeParent=1;resizeParentMax=0;resizeLast=0;collapsible=1;marginBottom=0;" parent="1" vertex="1"><mxGeometry x="1210" y="610" width="160" height="190" as="geometry"><mxRectangle x="880" y="920" width="120" height="30" as="alternateBounds"/></mxGeometry></mxCell><mxCell id="FIO6IWRy26lA9qaqWzXT-36" value="- pcode : int" style="text;strokeColor=none;fillColor=none;align=left;verticalAlign=top;spacingLeft=4;spacingRight=4;overflow=hidden;rotatable=0;points=[[0,0.5],[1,0.5]];portConstraint=eastwest;" parent="FIO6IWRy26lA9qaqWzXT-35" vertex="1"><mxGeometry y="26" width="160" height="26" as="geometry"/></mxCell><mxCell id="FIO6IWRy26lA9qaqWzXT-37" value="- pname : String&#10;" style="text;strokeColor=none;fillColor=none;align=left;verticalAlign=top;spacingLeft=4;spacingRight=4;overflow=hidden;rotatable=0;points=[[0,0.5],[1,0.5]];portConstraint=eastwest;" parent="FIO6IWRy26lA9qaqWzXT-35" vertex="1"><mxGeometry y="52" width="160" height="26" as="geometry"/></mxCell><mxCell id="FIO6IWRy26lA9qaqWzXT-39" value="- sort : String" style="text;strokeColor=none;fillColor=none;align=left;verticalAlign=top;spacingLeft=4;spacingRight=4;overflow=hidden;rotatable=0;points=[[0,0.5],[1,0.5]];portConstraint=eastwest;" parent="FIO6IWRy26lA9qaqWzXT-35" vertex="1"><mxGeometry y="78" width="160" height="26" as="geometry"/></mxCell><mxCell id="FIO6IWRy26lA9qaqWzXT-49" value="- price : int" style="text;strokeColor=none;fillColor=none;align=left;verticalAlign=top;spacingLeft=4;spacingRight=4;overflow=hidden;rotatable=0;points=[[0,0.5],[1,0.5]];portConstraint=eastwest;" parent="FIO6IWRy26lA9qaqWzXT-35" vertex="1"><mxGeometry y="104" width="160" height="26" as="geometry"/></mxCell><mxCell id="FIO6IWRy26lA9qaqWzXT-38" value="- amount : int" style="text;strokeColor=none;fillColor=none;align=left;verticalAlign=top;spacingLeft=4;spacingRight=4;overflow=hidden;rotatable=0;points=[[0,0.5],[1,0.5]];portConstraint=eastwest;" parent="FIO6IWRy26lA9qaqWzXT-35" vertex="1"><mxGeometry y="130" width="160" height="26" as="geometry"/></mxCell><mxCell id="FIO6IWRy26lA9qaqWzXT-40" value="" style="line;strokeWidth=1;fillColor=none;align=left;verticalAlign=middle;spacingTop=-1;spacingLeft=3;spacingRight=3;rotatable=0;labelPosition=right;points=[];portConstraint=eastwest;strokeColor=inherit;" parent="FIO6IWRy26lA9qaqWzXT-35" vertex="1"><mxGeometry y="156" width="160" height="8" as="geometry"/></mxCell><mxCell id="FIO6IWRy26lA9qaqWzXT-41" value="+ method(type): type" style="text;strokeColor=none;fillColor=none;align=left;verticalAlign=top;spacingLeft=4;spacingRight=4;overflow=hidden;rotatable=0;points=[[0,0.5],[1,0.5]];portConstraint=eastwest;" parent="FIO6IWRy26lA9qaqWzXT-35" vertex="1"><mxGeometry y="164" width="160" height="26" as="geometry"/></mxCell><mxCell id="FIO6IWRy26lA9qaqWzXT-42" value="purchase" style="swimlane;fontStyle=1;align=center;verticalAlign=top;childLayout=stackLayout;horizontal=1;startSize=26;horizontalStack=0;resizeParent=1;resizeParentMax=0;resizeLast=0;collapsible=1;marginBottom=0;" parent="1" vertex="1"><mxGeometry x="950" y="890" width="160" height="138" as="geometry"/></mxCell><mxCell id="FIO6IWRy26lA9qaqWzXT-43" value="- pcode : int" style="text;strokeColor=none;fillColor=none;align=left;verticalAlign=top;spacingLeft=4;spacingRight=4;overflow=hidden;rotatable=0;points=[[0,0.5],[1,0.5]];portConstraint=eastwest;" parent="FIO6IWRy26lA9qaqWzXT-42" vertex="1"><mxGeometry y="26" width="160" height="26" as="geometry"/></mxCell><mxCell id="FIO6IWRy26lA9qaqWzXT-44" value="- pname : String&#10;" style="text;strokeColor=none;fillColor=none;align=left;verticalAlign=top;spacingLeft=4;spacingRight=4;overflow=hidden;rotatable=0;points=[[0,0.5],[1,0.5]];portConstraint=eastwest;" parent="FIO6IWRy26lA9qaqWzXT-42" vertex="1"><mxGeometry y="52" width="160" height="26" as="geometry"/></mxCell><mxCell id="FIO6IWRy26lA9qaqWzXT-45" value="- sort : String" style="text;strokeColor=none;fillColor=none;align=left;verticalAlign=top;spacingLeft=4;spacingRight=4;overflow=hidden;rotatable=0;points=[[0,0.5],[1,0.5]];portConstraint=eastwest;" parent="FIO6IWRy26lA9qaqWzXT-42" vertex="1"><mxGeometry y="78" width="160" height="26" as="geometry"/></mxCell><mxCell id="FIO6IWRy26lA9qaqWzXT-46" value="" style="line;strokeWidth=1;fillColor=none;align=left;verticalAlign=middle;spacingTop=-1;spacingLeft=3;spacingRight=3;rotatable=0;labelPosition=right;points=[];portConstraint=eastwest;strokeColor=inherit;" parent="FIO6IWRy26lA9qaqWzXT-42" vertex="1"><mxGeometry y="104" width="160" height="8" as="geometry"/></mxCell><mxCell id="FIO6IWRy26lA9qaqWzXT-47" value="+ method(type): type" style="text;strokeColor=none;fillColor=none;align=left;verticalAlign=top;spacingLeft=4;spacingRight=4;overflow=hidden;rotatable=0;points=[[0,0.5],[1,0.5]];portConstraint=eastwest;" parent="FIO6IWRy26lA9qaqWzXT-42" vertex="1"><mxGeometry y="112" width="160" height="26" as="geometry"/></mxCell></root></mxGraphModel></diagram><diagram id="Lfs-iDrzNEPbWop_GKH7" name="시퀀스"><mxGraphModel dx="1422" dy="762" grid="1" gridSize="10" guides="1" tooltips="1" connect="1" arrows="1" fold="1" page="1" pageScale="1" pageWidth="3300" pageHeight="4681" math="0" shadow="0"><root><mxCell id="0"/><mxCell id="1" parent="0"/><mxCell id="jWfeu4CB6CVOncRjomXD-2" value="" style="shape=umlLifeline;participant=umlActor;perimeter=lifelinePerimeter;whiteSpace=wrap;html=1;container=1;collapsible=0;recursiveResize=0;verticalAlign=top;spacingTop=36;outlineConnect=0;" parent="1" vertex="1"><mxGeometry x="285" y="290" width="20" height="530" as="geometry"/></mxCell><mxCell id="jWfeu4CB6CVOncRjomXD-3" value="회원" style="text;html=1;align=center;verticalAlign=middle;resizable=0;points=[];autosize=1;strokeColor=none;fillColor=none;" parent="1" vertex="1"><mxGeometry x="270" y="260" width="50" height="30" as="geometry"/></mxCell><mxCell id="jWfeu4CB6CVOncRjomXD-4" value="상품조회" style="shape=umlLifeline;perimeter=lifelinePerimeter;whiteSpace=wrap;html=1;container=1;collapsible=0;recursiveResize=0;outlineConnect=0;" parent="1" vertex="1"><mxGeometry x="535" y="290" width="100" height="530" as="geometry"/></mxCell><mxCell id="jWfeu4CB6CVOncRjomXD-5" value="" style="html=1;points=[];perimeter=orthogonalPerimeter;" parent="jWfeu4CB6CVOncRjomXD-4" vertex="1"><mxGeometry x="46" y="68" width="7.17" height="41" as="geometry"/></mxCell><mxCell id="jWfeu4CB6CVOncRjomXD-6" value="상품조회 결과 반환" style="html=1;verticalAlign=bottom;endArrow=open;dashed=1;endSize=8;rounded=0;" parent="jWfeu4CB6CVOncRjomXD-4" target="jWfeu4CB6CVOncRjomXD-2" edge="1"><mxGeometry relative="1" as="geometry"><mxPoint x="40" y="109" as="sourcePoint"/><mxPoint x="-40" y="109" as="targetPoint"/></mxGeometry></mxCell><mxCell id="jWfeu4CB6CVOncRjomXD-7" value="" style="html=1;points=[];perimeter=orthogonalPerimeter;" parent="jWfeu4CB6CVOncRjomXD-4" vertex="1"><mxGeometry x="45" y="264" width="10" height="46" as="geometry"/></mxCell><mxCell id="jWfeu4CB6CVOncRjomXD-8" value="장바구니 요청" style="html=1;verticalAlign=bottom;endArrow=block;rounded=0;" parent="jWfeu4CB6CVOncRjomXD-4" edge="1"><mxGeometry width="80" relative="1" as="geometry"><mxPoint x="-240.07142857142856" y="204" as="sourcePoint"/><mxPoint x="202.08000000000004" y="204" as="targetPoint"/></mxGeometry></mxCell><mxCell id="jWfeu4CB6CVOncRjomXD-9" value="" style="html=1;points=[];perimeter=orthogonalPerimeter;" parent="jWfeu4CB6CVOncRjomXD-4" vertex="1"><mxGeometry x="45" y="320" width="10" height="40" as="geometry"/></mxCell><mxCell id="jWfeu4CB6CVOncRjomXD-10" value="결제 결과 반환" style="html=1;verticalAlign=bottom;endArrow=open;dashed=1;endSize=8;rounded=0;" parent="jWfeu4CB6CVOncRjomXD-4" edge="1"><mxGeometry relative="1" as="geometry"><mxPoint x="361" y="460" as="sourcePoint"/><mxPoint x="-239.18965517241372" y="460" as="targetPoint"/></mxGeometry></mxCell><mxCell id="jWfeu4CB6CVOncRjomXD-11" value="장바구니" style="shape=umlLifeline;perimeter=lifelinePerimeter;whiteSpace=wrap;html=1;container=1;collapsible=0;recursiveResize=0;outlineConnect=0;" parent="1" vertex="1"><mxGeometry x="695" y="290" width="100" height="530" as="geometry"/></mxCell><mxCell id="jWfeu4CB6CVOncRjomXD-12" value="" style="html=1;points=[];perimeter=orthogonalPerimeter;" parent="jWfeu4CB6CVOncRjomXD-11" vertex="1"><mxGeometry x="45" y="194" width="8.46" height="196" as="geometry"/></mxCell><mxCell id="jWfeu4CB6CVOncRjomXD-13" value="결제하기" style="shape=umlLifeline;perimeter=lifelinePerimeter;whiteSpace=wrap;html=1;container=1;collapsible=0;recursiveResize=0;outlineConnect=0;" parent="1" vertex="1"><mxGeometry x="855" y="290" width="100" height="530" as="geometry"/></mxCell><mxCell id="jWfeu4CB6CVOncRjomXD-14" value="" style="html=1;points=[];perimeter=orthogonalPerimeter;" parent="jWfeu4CB6CVOncRjomXD-13" vertex="1"><mxGeometry x="45.37" y="424" width="9.26" height="46" as="geometry"/></mxCell><mxCell id="jWfeu4CB6CVOncRjomXD-15" value="인증" style="shape=umlLifeline;perimeter=lifelinePerimeter;whiteSpace=wrap;html=1;container=1;collapsible=0;recursiveResize=0;outlineConnect=0;" parent="1" vertex="1"><mxGeometry x="375" y="290" width="100" height="530" as="geometry"/></mxCell><mxCell id="jWfeu4CB6CVOncRjomXD-16" value="" style="html=1;points=[];perimeter=orthogonalPerimeter;" parent="jWfeu4CB6CVOncRjomXD-15" vertex="1"><mxGeometry x="46" y="147" width="9.25" height="33" as="geometry"/></mxCell><mxCell id="jWfeu4CB6CVOncRjomXD-17" value="로그인 결과" style="html=1;verticalAlign=bottom;endArrow=open;dashed=1;endSize=8;rounded=0;" parent="jWfeu4CB6CVOncRjomXD-15" target="jWfeu4CB6CVOncRjomXD-2" edge="1"><mxGeometry relative="1" as="geometry"><mxPoint x="40" y="170" as="sourcePoint"/><mxPoint x="-40" y="170" as="targetPoint"/></mxGeometry></mxCell><mxCell id="jWfeu4CB6CVOncRjomXD-18" value="상품조회 요청" style="html=1;verticalAlign=bottom;endArrow=block;rounded=0;" parent="1" source="jWfeu4CB6CVOncRjomXD-2" edge="1"><mxGeometry width="80" relative="1" as="geometry"><mxPoint x="575" y="480" as="sourcePoint"/><mxPoint x="575" y="360" as="targetPoint"/><Array as="points"><mxPoint x="495" y="360"/></Array></mxGeometry></mxCell><mxCell id="jWfeu4CB6CVOncRjomXD-19" value="조회 / 등록 / 수정 / 삭제" style="text;html=1;align=center;verticalAlign=middle;resizable=0;points=[];autosize=1;strokeColor=none;fillColor=none;" parent="1" vertex="1"><mxGeometry x="510" y="260" width="150" height="30" as="geometry"/></mxCell><mxCell id="jWfeu4CB6CVOncRjomXD-20" value="로그인 시도" style="html=1;verticalAlign=bottom;endArrow=block;rounded=0;" parent="1" edge="1"><mxGeometry width="80" relative="1" as="geometry"><mxPoint x="295" y="439.71000000000004" as="sourcePoint"/><mxPoint x="415" y="440" as="targetPoint"/></mxGeometry></mxCell><mxCell id="jWfeu4CB6CVOncRjomXD-21" value="장바구니 가능여부 확인" style="html=1;verticalAlign=bottom;endArrow=block;rounded=0;" parent="1" edge="1"><mxGeometry width="80" relative="1" as="geometry"><mxPoint x="740.5" y="564" as="sourcePoint"/><mxPoint x="595" y="564" as="targetPoint"/></mxGeometry></mxCell><mxCell id="jWfeu4CB6CVOncRjomXD-22" value="장바구니 가능여부 반환" style="html=1;verticalAlign=bottom;endArrow=open;dashed=1;endSize=8;rounded=0;" parent="1" edge="1"><mxGeometry relative="1" as="geometry"><mxPoint x="596" y="590" as="sourcePoint"/><mxPoint x="738" y="589" as="targetPoint"/></mxGeometry></mxCell><mxCell id="jWfeu4CB6CVOncRjomXD-23" value="로그인 상태 확인" style="html=1;verticalAlign=bottom;endArrow=block;rounded=0;" parent="1" target="jWfeu4CB6CVOncRjomXD-24" edge="1"><mxGeometry width="80" relative="1" as="geometry"><mxPoint x="739.5" y="516" as="sourcePoint"/><mxPoint x="435" y="516" as="targetPoint"/></mxGeometry></mxCell><mxCell id="jWfeu4CB6CVOncRjomXD-24" value="" style="html=1;points=[];perimeter=orthogonalPerimeter;" parent="1" vertex="1"><mxGeometry x="421" y="507" width="8.25" height="33" as="geometry"/></mxCell><mxCell id="jWfeu4CB6CVOncRjomXD-25" value="로그인 상태 결과 반환" style="html=1;verticalAlign=bottom;endArrow=open;dashed=1;endSize=8;rounded=0;" parent="1" target="jWfeu4CB6CVOncRjomXD-12" edge="1"><mxGeometry relative="1" as="geometry"><mxPoint x="435" y="534" as="sourcePoint"/><mxPoint x="735" y="534" as="targetPoint"/><Array as="points"><mxPoint x="655" y="534"/></Array></mxGeometry></mxCell><mxCell id="jWfeu4CB6CVOncRjomXD-26" value="장바구니 요청 결과 반환" style="html=1;verticalAlign=bottom;endArrow=open;dashed=1;endSize=8;rounded=0;" parent="1" edge="1"><mxGeometry relative="1" as="geometry"><mxPoint x="740" y="673" as="sourcePoint"/><mxPoint x="294.92857142857156" y="673" as="targetPoint"/></mxGeometry></mxCell><mxCell id="jWfeu4CB6CVOncRjomXD-27" value="결제 신청" style="html=1;verticalAlign=bottom;endArrow=block;rounded=0;" parent="1" edge="1"><mxGeometry x="-0.01" y="3" width="80" relative="1" as="geometry"><mxPoint x="297.9985714285715" y="723" as="sourcePoint"/><mxPoint x="898" y="723" as="targetPoint"/><mxPoint as="offset"/></mxGeometry></mxCell><mxCell id="jWfeu4CB6CVOncRjomXD-28" value="" style="html=1;verticalAlign=bottom;endArrow=block;rounded=0;" parent="1" edge="1"><mxGeometry width="80" relative="1" as="geometry"><mxPoint x="740.5" y="620" as="sourcePoint"/><mxPoint x="595" y="620" as="targetPoint"/></mxGeometry></mxCell><mxCell id="jWfeu4CB6CVOncRjomXD-29" value="수정 결과 반환" style="html=1;verticalAlign=bottom;endArrow=open;dashed=1;endSize=8;rounded=0;" parent="1" edge="1"><mxGeometry relative="1" as="geometry"><mxPoint x="596" y="646" as="sourcePoint"/><mxPoint x="738" y="645" as="targetPoint"/></mxGeometry></mxCell></root></mxGraphModel></diagram><diagram id="Sk9gu6rQnio5hvl8QulZ" name="MVC"><mxGraphModel dx="1227" dy="879" grid="1" gridSize="10" guides="1" tooltips="1" connect="1" arrows="1" fold="1" page="1" pageScale="1" pageWidth="3300" pageHeight="4681" math="0" shadow="0"><root><mxCell id="0"/><mxCell id="1" parent="0"/><mxCell id="WcthcpOgER5yJWUGCfEw-1" value="View" style="shape=umlFrame;whiteSpace=wrap;html=1;" parent="1" vertex="1"><mxGeometry x="720" y="1440" width="280" height="680" as="geometry"/></mxCell><mxCell id="WcthcpOgER5yJWUGCfEw-2" value="Controller" style="shape=umlFrame;whiteSpace=wrap;html=1;" parent="1" vertex="1"><mxGeometry x="1090" y="1440" width="720" height="1190" as="geometry"/></mxCell><mxCell id="WcthcpOgER5yJWUGCfEw-3" value="Model" style="shape=umlFrame;whiteSpace=wrap;html=1;" parent="1" vertex="1"><mxGeometry x="1960" y="1440" width="440" height="370" as="geometry"/></mxCell><mxCell id="WcthcpOgER5yJWUGCfEw-4" value="GUIViewr" style="swimlane;fontStyle=1;align=center;verticalAlign=top;childLayout=stackLayout;horizontal=1;startSize=26;horizontalStack=0;resizeParent=1;resizeParentMax=0;resizeLast=0;collapsible=1;marginBottom=0;" parent="1" vertex="1"><mxGeometry x="760" y="1480" width="180" height="112" as="geometry"/></mxCell><mxCell id="WcthcpOgER5yJWUGCfEw-5" value="- controller : FrontController" style="text;strokeColor=none;fillColor=none;align=left;verticalAlign=top;spacingLeft=4;spacingRight=4;overflow=hidden;rotatable=0;points=[[0,0.5],[1,0.5]];portConstraint=eastwest;" parent="WcthcpOgER5yJWUGCfEw-4" vertex="1"><mxGeometry y="26" width="180" height="26" as="geometry"/></mxCell><mxCell id="WcthcpOgER5yJWUGCfEw-6" value="" style="line;strokeWidth=1;fillColor=none;align=left;verticalAlign=middle;spacingTop=-1;spacingLeft=3;spacingRight=3;rotatable=0;labelPosition=right;points=[];portConstraint=eastwest;strokeColor=inherit;" parent="WcthcpOgER5yJWUGCfEw-4" vertex="1"><mxGeometry y="52" width="180" height="8" as="geometry"/></mxCell><mxCell id="WcthcpOgER5yJWUGCfEw-7" value="- init() : void" style="text;strokeColor=none;fillColor=none;align=left;verticalAlign=top;spacingLeft=4;spacingRight=4;overflow=hidden;rotatable=0;points=[[0,0.5],[1,0.5]];portConstraint=eastwest;" parent="WcthcpOgER5yJWUGCfEw-4" vertex="1"><mxGeometry y="60" width="180" height="26" as="geometry"/></mxCell><mxCell id="WcthcpOgER5yJWUGCfEw-8" value="+ ExSubController(menu, SN)" style="text;strokeColor=none;fillColor=none;align=left;verticalAlign=top;spacingLeft=4;spacingRight=4;overflow=hidden;rotatable=0;points=[[0,0.5],[1,0.5]];portConstraint=eastwest;" parent="WcthcpOgER5yJWUGCfEw-4" vertex="1"><mxGeometry y="86" width="180" height="26" as="geometry"/></mxCell><mxCell id="WcthcpOgER5yJWUGCfEw-9" value="SubController" style="swimlane;fontStyle=1;align=center;verticalAlign=top;childLayout=stackLayout;horizontal=1;startSize=26;horizontalStack=0;resizeParent=1;resizeParentMax=0;resizeLast=0;collapsible=1;marginBottom=0;" parent="1" vertex="1"><mxGeometry x="1320" y="1600" width="120" height="86" as="geometry"/></mxCell><mxCell id="WcthcpOgER5yJWUGCfEw-10" value="-" style="text;strokeColor=none;fillColor=none;align=left;verticalAlign=top;spacingLeft=4;spacingRight=4;overflow=hidden;rotatable=0;points=[[0,0.5],[1,0.5]];portConstraint=eastwest;" parent="WcthcpOgER5yJWUGCfEw-9" vertex="1"><mxGeometry y="26" width="120" height="26" as="geometry"/></mxCell><mxCell id="WcthcpOgER5yJWUGCfEw-11" value="" style="line;strokeWidth=1;fillColor=none;align=left;verticalAlign=middle;spacingTop=-1;spacingLeft=3;spacingRight=3;rotatable=0;labelPosition=right;points=[];portConstraint=eastwest;strokeColor=inherit;" parent="WcthcpOgER5yJWUGCfEw-9" vertex="1"><mxGeometry y="52" width="120" height="8" as="geometry"/></mxCell><mxCell id="WcthcpOgER5yJWUGCfEw-12" value="+ execute() : void" style="text;strokeColor=none;fillColor=none;align=left;verticalAlign=top;spacingLeft=4;spacingRight=4;overflow=hidden;rotatable=0;points=[[0,0.5],[1,0.5]];portConstraint=eastwest;" parent="WcthcpOgER5yJWUGCfEw-9" vertex="1"><mxGeometry y="60" width="120" height="26" as="geometry"/></mxCell><mxCell id="c67etOE8xW-VEhWZTs1y-13" style="edgeStyle=none;rounded=0;orthogonalLoop=1;jettySize=auto;html=1;endArrow=block;endFill=0;endSize=12;" parent="1" source="WcthcpOgER5yJWUGCfEw-13" target="WcthcpOgER5yJWUGCfEw-9" edge="1"><mxGeometry relative="1" as="geometry"/></mxCell><mxCell id="WcthcpOgER5yJWUGCfEw-13" value="ProdController" style="swimlane;fontStyle=1;align=center;verticalAlign=top;childLayout=stackLayout;horizontal=1;startSize=26;horizontalStack=0;resizeParent=1;resizeParentMax=0;resizeLast=0;collapsible=1;marginBottom=0;" parent="1" vertex="1"><mxGeometry x="1480" y="1480" width="140" height="86" as="geometry"/></mxCell><mxCell id="WcthcpOgER5yJWUGCfEw-14" value="- service: ProdService" style="text;strokeColor=none;fillColor=none;align=left;verticalAlign=top;spacingLeft=4;spacingRight=4;overflow=hidden;rotatable=0;points=[[0,0.5],[1,0.5]];portConstraint=eastwest;" parent="WcthcpOgER5yJWUGCfEw-13" vertex="1"><mxGeometry y="26" width="140" height="26" as="geometry"/></mxCell><mxCell id="WcthcpOgER5yJWUGCfEw-15" value="" style="line;strokeWidth=1;fillColor=none;align=left;verticalAlign=middle;spacingTop=-1;spacingLeft=3;spacingRight=3;rotatable=0;labelPosition=right;points=[];portConstraint=eastwest;strokeColor=inherit;" parent="WcthcpOgER5yJWUGCfEw-13" vertex="1"><mxGeometry y="52" width="140" height="8" as="geometry"/></mxCell><mxCell id="WcthcpOgER5yJWUGCfEw-16" value="+" style="text;strokeColor=none;fillColor=none;align=left;verticalAlign=top;spacingLeft=4;spacingRight=4;overflow=hidden;rotatable=0;points=[[0,0.5],[1,0.5]];portConstraint=eastwest;" parent="WcthcpOgER5yJWUGCfEw-13" vertex="1"><mxGeometry y="60" width="140" height="26" as="geometry"/></mxCell><mxCell id="c67etOE8xW-VEhWZTs1y-10" style="rounded=0;orthogonalLoop=1;jettySize=auto;html=1;endArrow=block;endFill=0;endSize=12;" parent="1" source="UXqfiRhYJ7-DMKqVHL_M-1" target="WcthcpOgER5yJWUGCfEw-9" edge="1"><mxGeometry relative="1" as="geometry"/></mxCell><mxCell id="UXqfiRhYJ7-DMKqVHL_M-1" value="MemController" style="swimlane;fontStyle=1;align=center;verticalAlign=top;childLayout=stackLayout;horizontal=1;startSize=26;horizontalStack=0;resizeParent=1;resizeParentMax=0;resizeLast=0;collapsible=1;marginBottom=0;" parent="1" vertex="1"><mxGeometry x="1580" y="1877" width="140" height="86" as="geometry"/></mxCell><mxCell id="UXqfiRhYJ7-DMKqVHL_M-2" value="- service: MemService" style="text;strokeColor=none;fillColor=none;align=left;verticalAlign=top;spacingLeft=4;spacingRight=4;overflow=hidden;rotatable=0;points=[[0,0.5],[1,0.5]];portConstraint=eastwest;" parent="UXqfiRhYJ7-DMKqVHL_M-1" vertex="1"><mxGeometry y="26" width="140" height="26" as="geometry"/></mxCell><mxCell id="UXqfiRhYJ7-DMKqVHL_M-3" value="" style="line;strokeWidth=1;fillColor=none;align=left;verticalAlign=middle;spacingTop=-1;spacingLeft=3;spacingRight=3;rotatable=0;labelPosition=right;points=[];portConstraint=eastwest;strokeColor=inherit;" parent="UXqfiRhYJ7-DMKqVHL_M-1" vertex="1"><mxGeometry y="52" width="140" height="8" as="geometry"/></mxCell><mxCell id="UXqfiRhYJ7-DMKqVHL_M-4" value="- service : AuthService" style="text;strokeColor=none;fillColor=none;align=left;verticalAlign=top;spacingLeft=4;spacingRight=4;overflow=hidden;rotatable=0;points=[[0,0.5],[1,0.5]];portConstraint=eastwest;" parent="UXqfiRhYJ7-DMKqVHL_M-1" vertex="1"><mxGeometry y="60" width="140" height="26" as="geometry"/></mxCell><mxCell id="UXqfiRhYJ7-DMKqVHL_M-5" value="DTO" style="swimlane;fontStyle=1;align=center;verticalAlign=top;childLayout=stackLayout;horizontal=1;startSize=26;horizontalStack=0;resizeParent=1;resizeParentMax=0;resizeLast=0;collapsible=1;marginBottom=0;" parent="1" vertex="1"><mxGeometry x="1790" y="1600" width="140" height="86" as="geometry"/></mxCell><mxCell id="UXqfiRhYJ7-DMKqVHL_M-6" value="+ field : type;" style="text;strokeColor=none;fillColor=none;align=left;verticalAlign=top;spacingLeft=4;spacingRight=4;overflow=hidden;rotatable=0;points=[[0,0.5],[1,0.5]];portConstraint=eastwest;" parent="UXqfiRhYJ7-DMKqVHL_M-5" vertex="1"><mxGeometry y="26" width="140" height="26" as="geometry"/></mxCell><mxCell id="UXqfiRhYJ7-DMKqVHL_M-7" value="" style="line;strokeWidth=1;fillColor=none;align=left;verticalAlign=middle;spacingTop=-1;spacingLeft=3;spacingRight=3;rotatable=0;labelPosition=right;points=[];portConstraint=eastwest;strokeColor=inherit;" parent="UXqfiRhYJ7-DMKqVHL_M-5" vertex="1"><mxGeometry y="52" width="140" height="8" as="geometry"/></mxCell><mxCell id="UXqfiRhYJ7-DMKqVHL_M-8" value="+ method(type) : type" style="text;strokeColor=none;fillColor=none;align=left;verticalAlign=top;spacingLeft=4;spacingRight=4;overflow=hidden;rotatable=0;points=[[0,0.5],[1,0.5]];portConstraint=eastwest;" parent="UXqfiRhYJ7-DMKqVHL_M-5" vertex="1"><mxGeometry y="60" width="140" height="26" as="geometry"/></mxCell><mxCell id="UXqfiRhYJ7-DMKqVHL_M-9" value="HomeController" style="swimlane;fontStyle=1;align=center;verticalAlign=top;childLayout=stackLayout;horizontal=1;startSize=26;horizontalStack=0;resizeParent=1;resizeParentMax=0;resizeLast=0;collapsible=1;marginBottom=0;" parent="1" vertex="1"><mxGeometry x="1080" y="1600" width="200" height="86" as="geometry"/></mxCell><mxCell id="UXqfiRhYJ7-DMKqVHL_M-10" value="-map:Map&lt;Strinbg, Subcontroller&gt;" style="text;strokeColor=none;fillColor=none;align=left;verticalAlign=top;spacingLeft=4;spacingRight=4;overflow=hidden;rotatable=0;points=[[0,0.5],[1,0.5]];portConstraint=eastwest;" parent="UXqfiRhYJ7-DMKqVHL_M-9" vertex="1"><mxGeometry y="26" width="200" height="26" as="geometry"/></mxCell><mxCell id="UXqfiRhYJ7-DMKqVHL_M-11" value="" style="line;strokeWidth=1;fillColor=none;align=left;verticalAlign=middle;spacingTop=-1;spacingLeft=3;spacingRight=3;rotatable=0;labelPosition=right;points=[];portConstraint=eastwest;strokeColor=inherit;" parent="UXqfiRhYJ7-DMKqVHL_M-9" vertex="1"><mxGeometry y="52" width="200" height="8" as="geometry"/></mxCell><mxCell id="UXqfiRhYJ7-DMKqVHL_M-12" value="+ execute() : void" style="text;strokeColor=none;fillColor=none;align=left;verticalAlign=top;spacingLeft=4;spacingRight=4;overflow=hidden;rotatable=0;points=[[0,0.5],[1,0.5]];portConstraint=eastwest;" parent="UXqfiRhYJ7-DMKqVHL_M-9" vertex="1"><mxGeometry y="60" width="200" height="26" as="geometry"/></mxCell><mxCell id="c67etOE8xW-VEhWZTs1y-4" style="edgeStyle=orthogonalEdgeStyle;rounded=0;orthogonalLoop=1;jettySize=auto;html=1;endArrow=diamondThin;endFill=1;endSize=12;" parent="1" source="UXqfiRhYJ7-DMKqVHL_M-13" target="UXqfiRhYJ7-DMKqVHL_M-17" edge="1"><mxGeometry relative="1" as="geometry"/></mxCell><mxCell id="UXqfiRhYJ7-DMKqVHL_M-13" value="ProdService" style="swimlane;fontStyle=1;align=center;verticalAlign=top;childLayout=stackLayout;horizontal=1;startSize=26;horizontalStack=0;resizeParent=1;resizeParentMax=0;resizeLast=0;collapsible=1;marginBottom=0;" parent="1" vertex="1"><mxGeometry x="2000" y="1480" width="140" height="86" as="geometry"/></mxCell><mxCell id="UXqfiRhYJ7-DMKqVHL_M-14" value="- dao : ProdDAO" style="text;strokeColor=none;fillColor=none;align=left;verticalAlign=top;spacingLeft=4;spacingRight=4;overflow=hidden;rotatable=0;points=[[0,0.5],[1,0.5]];portConstraint=eastwest;" parent="UXqfiRhYJ7-DMKqVHL_M-13" vertex="1"><mxGeometry y="26" width="140" height="26" as="geometry"/></mxCell><mxCell id="UXqfiRhYJ7-DMKqVHL_M-15" value="" style="line;strokeWidth=1;fillColor=none;align=left;verticalAlign=middle;spacingTop=-1;spacingLeft=3;spacingRight=3;rotatable=0;labelPosition=right;points=[];portConstraint=eastwest;strokeColor=inherit;" parent="UXqfiRhYJ7-DMKqVHL_M-13" vertex="1"><mxGeometry y="52" width="140" height="8" as="geometry"/></mxCell><mxCell id="UXqfiRhYJ7-DMKqVHL_M-16" value="+" style="text;strokeColor=none;fillColor=none;align=left;verticalAlign=top;spacingLeft=4;spacingRight=4;overflow=hidden;rotatable=0;points=[[0,0.5],[1,0.5]];portConstraint=eastwest;" parent="UXqfiRhYJ7-DMKqVHL_M-13" vertex="1"><mxGeometry y="60" width="140" height="26" as="geometry"/></mxCell><mxCell id="UXqfiRhYJ7-DMKqVHL_M-17" value="ProdDAO" style="swimlane;fontStyle=1;align=center;verticalAlign=top;childLayout=stackLayout;horizontal=1;startSize=26;horizontalStack=0;resizeParent=1;resizeParentMax=0;resizeLast=0;collapsible=1;marginBottom=0;" parent="1" vertex="1"><mxGeometry x="2200" y="1480" width="140" height="86" as="geometry"/></mxCell><mxCell id="UXqfiRhYJ7-DMKqVHL_M-18" value="-" style="text;strokeColor=none;fillColor=none;align=left;verticalAlign=top;spacingLeft=4;spacingRight=4;overflow=hidden;rotatable=0;points=[[0,0.5],[1,0.5]];portConstraint=eastwest;" parent="UXqfiRhYJ7-DMKqVHL_M-17" vertex="1"><mxGeometry y="26" width="140" height="26" as="geometry"/></mxCell><mxCell id="UXqfiRhYJ7-DMKqVHL_M-19" value="" style="line;strokeWidth=1;fillColor=none;align=left;verticalAlign=middle;spacingTop=-1;spacingLeft=3;spacingRight=3;rotatable=0;labelPosition=right;points=[];portConstraint=eastwest;strokeColor=inherit;" parent="UXqfiRhYJ7-DMKqVHL_M-17" vertex="1"><mxGeometry y="52" width="140" height="8" as="geometry"/></mxCell><mxCell id="UXqfiRhYJ7-DMKqVHL_M-20" value="+" style="text;strokeColor=none;fillColor=none;align=left;verticalAlign=top;spacingLeft=4;spacingRight=4;overflow=hidden;rotatable=0;points=[[0,0.5],[1,0.5]];portConstraint=eastwest;" parent="UXqfiRhYJ7-DMKqVHL_M-17" vertex="1"><mxGeometry y="60" width="140" height="26" as="geometry"/></mxCell><mxCell id="c67etOE8xW-VEhWZTs1y-14" style="edgeStyle=none;rounded=0;orthogonalLoop=1;jettySize=auto;html=1;endArrow=block;endFill=0;endSize=12;" parent="1" source="UXqfiRhYJ7-DMKqVHL_M-21" target="UXqfiRhYJ7-DMKqVHL_M-5" edge="1"><mxGeometry relative="1" as="geometry"/></mxCell><mxCell id="UXqfiRhYJ7-DMKqVHL_M-21" value="ProdDTO" style="swimlane;fontStyle=1;align=center;verticalAlign=top;childLayout=stackLayout;horizontal=1;startSize=26;horizontalStack=0;resizeParent=1;resizeParentMax=0;resizeLast=0;collapsible=1;marginBottom=0;" parent="1" vertex="1"><mxGeometry x="2200" y="1600" width="140" height="190" as="geometry"/></mxCell><mxCell id="UXqfiRhYJ7-DMKqVHL_M-22" value="- prodcode : int(PK)" style="text;strokeColor=none;fillColor=none;align=left;verticalAlign=top;spacingLeft=4;spacingRight=4;overflow=hidden;rotatable=0;points=[[0,0.5],[1,0.5]];portConstraint=eastwest;" parent="UXqfiRhYJ7-DMKqVHL_M-21" vertex="1"><mxGeometry y="26" width="140" height="26" as="geometry"/></mxCell><mxCell id="UXqfiRhYJ7-DMKqVHL_M-25" value="- prodname : String" style="text;strokeColor=none;fillColor=none;align=left;verticalAlign=top;spacingLeft=4;spacingRight=4;overflow=hidden;rotatable=0;points=[[0,0.5],[1,0.5]];portConstraint=eastwest;" parent="UXqfiRhYJ7-DMKqVHL_M-21" vertex="1"><mxGeometry y="52" width="140" height="26" as="geometry"/></mxCell><mxCell id="UXqfiRhYJ7-DMKqVHL_M-26" value="- amount : int" style="text;strokeColor=none;fillColor=none;align=left;verticalAlign=top;spacingLeft=4;spacingRight=4;overflow=hidden;rotatable=0;points=[[0,0.5],[1,0.5]];portConstraint=eastwest;" parent="UXqfiRhYJ7-DMKqVHL_M-21" vertex="1"><mxGeometry y="78" width="140" height="26" as="geometry"/></mxCell><mxCell id="UXqfiRhYJ7-DMKqVHL_M-27" value="- price : int" style="text;strokeColor=none;fillColor=none;align=left;verticalAlign=top;spacingLeft=4;spacingRight=4;overflow=hidden;rotatable=0;points=[[0,0.5],[1,0.5]];portConstraint=eastwest;" parent="UXqfiRhYJ7-DMKqVHL_M-21" vertex="1"><mxGeometry y="104" width="140" height="26" as="geometry"/></mxCell><mxCell id="UXqfiRhYJ7-DMKqVHL_M-29" value="- perm : int(FK)" style="text;strokeColor=none;fillColor=none;align=left;verticalAlign=top;spacingLeft=4;spacingRight=4;overflow=hidden;rotatable=0;points=[[0,0.5],[1,0.5]];portConstraint=eastwest;" parent="UXqfiRhYJ7-DMKqVHL_M-21" vertex="1"><mxGeometry y="130" width="140" height="26" as="geometry"/></mxCell><mxCell id="UXqfiRhYJ7-DMKqVHL_M-23" value="" style="line;strokeWidth=1;fillColor=none;align=left;verticalAlign=middle;spacingTop=-1;spacingLeft=3;spacingRight=3;rotatable=0;labelPosition=right;points=[];portConstraint=eastwest;strokeColor=inherit;" parent="UXqfiRhYJ7-DMKqVHL_M-21" vertex="1"><mxGeometry y="156" width="140" height="8" as="geometry"/></mxCell><mxCell id="UXqfiRhYJ7-DMKqVHL_M-24" value="+" style="text;strokeColor=none;fillColor=none;align=left;verticalAlign=top;spacingLeft=4;spacingRight=4;overflow=hidden;rotatable=0;points=[[0,0.5],[1,0.5]];portConstraint=eastwest;" parent="UXqfiRhYJ7-DMKqVHL_M-21" vertex="1"><mxGeometry y="164" width="140" height="26" as="geometry"/></mxCell><mxCell id="UXqfiRhYJ7-DMKqVHL_M-30" value="Model" style="shape=umlFrame;whiteSpace=wrap;html=1;" parent="1" vertex="1"><mxGeometry x="1960" y="1840" width="440" height="390" as="geometry"/></mxCell><mxCell id="c67etOE8xW-VEhWZTs1y-5" style="edgeStyle=orthogonalEdgeStyle;rounded=0;orthogonalLoop=1;jettySize=auto;html=1;endArrow=diamondThin;endFill=1;endSize=12;" parent="1" source="UXqfiRhYJ7-DMKqVHL_M-31" target="UXqfiRhYJ7-DMKqVHL_M-35" edge="1"><mxGeometry relative="1" as="geometry"/></mxCell><mxCell id="UXqfiRhYJ7-DMKqVHL_M-31" value="MemService" style="swimlane;fontStyle=1;align=center;verticalAlign=top;childLayout=stackLayout;horizontal=1;startSize=26;horizontalStack=0;resizeParent=1;resizeParentMax=0;resizeLast=0;collapsible=1;marginBottom=0;" parent="1" vertex="1"><mxGeometry x="2000" y="1880" width="140" height="86" as="geometry"/></mxCell><mxCell id="UXqfiRhYJ7-DMKqVHL_M-32" value="- dao : MemDAO" style="text;strokeColor=none;fillColor=none;align=left;verticalAlign=top;spacingLeft=4;spacingRight=4;overflow=hidden;rotatable=0;points=[[0,0.5],[1,0.5]];portConstraint=eastwest;" parent="UXqfiRhYJ7-DMKqVHL_M-31" vertex="1"><mxGeometry y="26" width="140" height="26" as="geometry"/></mxCell><mxCell id="UXqfiRhYJ7-DMKqVHL_M-33" value="" style="line;strokeWidth=1;fillColor=none;align=left;verticalAlign=middle;spacingTop=-1;spacingLeft=3;spacingRight=3;rotatable=0;labelPosition=right;points=[];portConstraint=eastwest;strokeColor=inherit;" parent="UXqfiRhYJ7-DMKqVHL_M-31" vertex="1"><mxGeometry y="52" width="140" height="8" as="geometry"/></mxCell><mxCell id="UXqfiRhYJ7-DMKqVHL_M-34" value="+" style="text;strokeColor=none;fillColor=none;align=left;verticalAlign=top;spacingLeft=4;spacingRight=4;overflow=hidden;rotatable=0;points=[[0,0.5],[1,0.5]];portConstraint=eastwest;" parent="UXqfiRhYJ7-DMKqVHL_M-31" vertex="1"><mxGeometry y="60" width="140" height="26" as="geometry"/></mxCell><mxCell id="c67etOE8xW-VEhWZTs1y-25" style="edgeStyle=none;rounded=0;orthogonalLoop=1;jettySize=auto;html=1;endArrow=none;endFill=0;endSize=12;" parent="1" source="UXqfiRhYJ7-DMKqVHL_M-35" target="UXqfiRhYJ7-DMKqVHL_M-60" edge="1"><mxGeometry relative="1" as="geometry"/></mxCell><mxCell id="UXqfiRhYJ7-DMKqVHL_M-35" value="MemDAO" style="swimlane;fontStyle=1;align=center;verticalAlign=top;childLayout=stackLayout;horizontal=1;startSize=26;horizontalStack=0;resizeParent=1;resizeParentMax=0;resizeLast=0;collapsible=1;marginBottom=0;" parent="1" vertex="1"><mxGeometry x="2200" y="1880" width="140" height="86" as="geometry"/></mxCell><mxCell id="UXqfiRhYJ7-DMKqVHL_M-36" value="-" style="text;strokeColor=none;fillColor=none;align=left;verticalAlign=top;spacingLeft=4;spacingRight=4;overflow=hidden;rotatable=0;points=[[0,0.5],[1,0.5]];portConstraint=eastwest;" parent="UXqfiRhYJ7-DMKqVHL_M-35" vertex="1"><mxGeometry y="26" width="140" height="26" as="geometry"/></mxCell><mxCell id="UXqfiRhYJ7-DMKqVHL_M-37" value="" style="line;strokeWidth=1;fillColor=none;align=left;verticalAlign=middle;spacingTop=-1;spacingLeft=3;spacingRight=3;rotatable=0;labelPosition=right;points=[];portConstraint=eastwest;strokeColor=inherit;" parent="UXqfiRhYJ7-DMKqVHL_M-35" vertex="1"><mxGeometry y="52" width="140" height="8" as="geometry"/></mxCell><mxCell id="UXqfiRhYJ7-DMKqVHL_M-38" value="+" style="text;strokeColor=none;fillColor=none;align=left;verticalAlign=top;spacingLeft=4;spacingRight=4;overflow=hidden;rotatable=0;points=[[0,0.5],[1,0.5]];portConstraint=eastwest;" parent="UXqfiRhYJ7-DMKqVHL_M-35" vertex="1"><mxGeometry y="60" width="140" height="26" as="geometry"/></mxCell><mxCell id="c67etOE8xW-VEhWZTs1y-16" style="edgeStyle=none;rounded=0;orthogonalLoop=1;jettySize=auto;html=1;endArrow=block;endFill=0;endSize=12;" parent="1" source="UXqfiRhYJ7-DMKqVHL_M-39" target="UXqfiRhYJ7-DMKqVHL_M-5" edge="1"><mxGeometry relative="1" as="geometry"/></mxCell><mxCell id="UXqfiRhYJ7-DMKqVHL_M-39" value="MemDTO" style="swimlane;fontStyle=1;align=center;verticalAlign=top;childLayout=stackLayout;horizontal=1;startSize=26;horizontalStack=0;resizeParent=1;resizeParentMax=0;resizeLast=0;collapsible=1;marginBottom=0;" parent="1" vertex="1"><mxGeometry x="2200" y="2000" width="160" height="216" as="geometry"/></mxCell><mxCell id="UXqfiRhYJ7-DMKqVHL_M-40" value="- ID : String(PK)" style="text;strokeColor=none;fillColor=none;align=left;verticalAlign=top;spacingLeft=4;spacingRight=4;overflow=hidden;rotatable=0;points=[[0,0.5],[1,0.5]];portConstraint=eastwest;" parent="UXqfiRhYJ7-DMKqVHL_M-39" vertex="1"><mxGeometry y="26" width="160" height="26" as="geometry"/></mxCell><mxCell id="UXqfiRhYJ7-DMKqVHL_M-41" value="- PW : String" style="text;strokeColor=none;fillColor=none;align=left;verticalAlign=top;spacingLeft=4;spacingRight=4;overflow=hidden;rotatable=0;points=[[0,0.5],[1,0.5]];portConstraint=eastwest;" parent="UXqfiRhYJ7-DMKqVHL_M-39" vertex="1"><mxGeometry y="52" width="160" height="26" as="geometry"/></mxCell><mxCell id="UXqfiRhYJ7-DMKqVHL_M-42" value="- Addr : String" style="text;strokeColor=none;fillColor=none;align=left;verticalAlign=top;spacingLeft=4;spacingRight=4;overflow=hidden;rotatable=0;points=[[0,0.5],[1,0.5]];portConstraint=eastwest;" parent="UXqfiRhYJ7-DMKqVHL_M-39" vertex="1"><mxGeometry y="78" width="160" height="26" as="geometry"/></mxCell><mxCell id="UXqfiRhYJ7-DMKqVHL_M-43" value="- Phone : String" style="text;strokeColor=none;fillColor=none;align=left;verticalAlign=top;spacingLeft=4;spacingRight=4;overflow=hidden;rotatable=0;points=[[0,0.5],[1,0.5]];portConstraint=eastwest;" parent="UXqfiRhYJ7-DMKqVHL_M-39" vertex="1"><mxGeometry y="104" width="160" height="26" as="geometry"/></mxCell><mxCell id="UXqfiRhYJ7-DMKqVHL_M-47" value="- Joindate : date" style="text;strokeColor=none;fillColor=none;align=left;verticalAlign=top;spacingLeft=4;spacingRight=4;overflow=hidden;rotatable=0;points=[[0,0.5],[1,0.5]];portConstraint=eastwest;" parent="UXqfiRhYJ7-DMKqVHL_M-39" vertex="1"><mxGeometry y="130" width="160" height="26" as="geometry"/></mxCell><mxCell id="UXqfiRhYJ7-DMKqVHL_M-48" value="- permcheck : int , boolean" style="text;strokeColor=none;fillColor=none;align=left;verticalAlign=top;spacingLeft=4;spacingRight=4;overflow=hidden;rotatable=0;points=[[0,0.5],[1,0.5]];portConstraint=eastwest;" parent="UXqfiRhYJ7-DMKqVHL_M-39" vertex="1"><mxGeometry y="156" width="160" height="26" as="geometry"/></mxCell><mxCell id="UXqfiRhYJ7-DMKqVHL_M-45" value="" style="line;strokeWidth=1;fillColor=none;align=left;verticalAlign=middle;spacingTop=-1;spacingLeft=3;spacingRight=3;rotatable=0;labelPosition=right;points=[];portConstraint=eastwest;strokeColor=inherit;" parent="UXqfiRhYJ7-DMKqVHL_M-39" vertex="1"><mxGeometry y="182" width="160" height="8" as="geometry"/></mxCell><mxCell id="UXqfiRhYJ7-DMKqVHL_M-46" value="+" style="text;strokeColor=none;fillColor=none;align=left;verticalAlign=top;spacingLeft=4;spacingRight=4;overflow=hidden;rotatable=0;points=[[0,0.5],[1,0.5]];portConstraint=eastwest;" parent="UXqfiRhYJ7-DMKqVHL_M-39" vertex="1"><mxGeometry y="190" width="160" height="26" as="geometry"/></mxCell><mxCell id="UXqfiRhYJ7-DMKqVHL_M-49" value="Model" style="shape=umlFrame;whiteSpace=wrap;html=1;" parent="1" vertex="1"><mxGeometry x="1960" y="2440" width="440" height="190" as="geometry"/></mxCell><mxCell id="c67etOE8xW-VEhWZTs1y-6" style="edgeStyle=orthogonalEdgeStyle;rounded=0;orthogonalLoop=1;jettySize=auto;html=1;endArrow=diamondThin;endFill=1;endSize=12;" parent="1" source="UXqfiRhYJ7-DMKqVHL_M-50" target="UXqfiRhYJ7-DMKqVHL_M-55" edge="1"><mxGeometry relative="1" as="geometry"/></mxCell><mxCell id="UXqfiRhYJ7-DMKqVHL_M-50" value="PurchaseService" style="swimlane;fontStyle=1;align=center;verticalAlign=top;childLayout=stackLayout;horizontal=1;startSize=26;horizontalStack=0;resizeParent=1;resizeParentMax=0;resizeLast=0;collapsible=1;marginBottom=0;" parent="1" vertex="1"><mxGeometry x="2000" y="2480" width="140" height="112" as="geometry"/></mxCell><mxCell id="UXqfiRhYJ7-DMKqVHL_M-51" value="- dao : MemDAO" style="text;strokeColor=none;fillColor=none;align=left;verticalAlign=top;spacingLeft=4;spacingRight=4;overflow=hidden;rotatable=0;points=[[0,0.5],[1,0.5]];portConstraint=eastwest;" parent="UXqfiRhYJ7-DMKqVHL_M-50" vertex="1"><mxGeometry y="26" width="140" height="26" as="geometry"/></mxCell><mxCell id="UXqfiRhYJ7-DMKqVHL_M-54" value="- dao : ProdDAO" style="text;strokeColor=none;fillColor=none;align=left;verticalAlign=top;spacingLeft=4;spacingRight=4;overflow=hidden;rotatable=0;points=[[0,0.5],[1,0.5]];portConstraint=eastwest;" parent="UXqfiRhYJ7-DMKqVHL_M-50" vertex="1"><mxGeometry y="52" width="140" height="26" as="geometry"/></mxCell><mxCell id="UXqfiRhYJ7-DMKqVHL_M-52" value="" style="line;strokeWidth=1;fillColor=none;align=left;verticalAlign=middle;spacingTop=-1;spacingLeft=3;spacingRight=3;rotatable=0;labelPosition=right;points=[];portConstraint=eastwest;strokeColor=inherit;" parent="UXqfiRhYJ7-DMKqVHL_M-50" vertex="1"><mxGeometry y="78" width="140" height="8" as="geometry"/></mxCell><mxCell id="UXqfiRhYJ7-DMKqVHL_M-53" value="+" style="text;strokeColor=none;fillColor=none;align=left;verticalAlign=top;spacingLeft=4;spacingRight=4;overflow=hidden;rotatable=0;points=[[0,0.5],[1,0.5]];portConstraint=eastwest;" parent="UXqfiRhYJ7-DMKqVHL_M-50" vertex="1"><mxGeometry y="86" width="140" height="26" as="geometry"/></mxCell><mxCell id="c67etOE8xW-VEhWZTs1y-17" style="edgeStyle=none;rounded=0;orthogonalLoop=1;jettySize=auto;html=1;endArrow=block;endFill=0;endSize=12;" parent="1" source="UXqfiRhYJ7-DMKqVHL_M-55" target="UXqfiRhYJ7-DMKqVHL_M-5" edge="1"><mxGeometry relative="1" as="geometry"/></mxCell><mxCell id="UXqfiRhYJ7-DMKqVHL_M-55" value="PurchaseDAO" style="swimlane;fontStyle=1;align=center;verticalAlign=top;childLayout=stackLayout;horizontal=1;startSize=26;horizontalStack=0;resizeParent=1;resizeParentMax=0;resizeLast=0;collapsible=1;marginBottom=0;" parent="1" vertex="1"><mxGeometry x="2220" y="2493" width="140" height="86" as="geometry"/></mxCell><mxCell id="UXqfiRhYJ7-DMKqVHL_M-56" value="-" style="text;strokeColor=none;fillColor=none;align=left;verticalAlign=top;spacingLeft=4;spacingRight=4;overflow=hidden;rotatable=0;points=[[0,0.5],[1,0.5]];portConstraint=eastwest;" parent="UXqfiRhYJ7-DMKqVHL_M-55" vertex="1"><mxGeometry y="26" width="140" height="26" as="geometry"/></mxCell><mxCell id="UXqfiRhYJ7-DMKqVHL_M-57" value="" style="line;strokeWidth=1;fillColor=none;align=left;verticalAlign=middle;spacingTop=-1;spacingLeft=3;spacingRight=3;rotatable=0;labelPosition=right;points=[];portConstraint=eastwest;strokeColor=inherit;" parent="UXqfiRhYJ7-DMKqVHL_M-55" vertex="1"><mxGeometry y="52" width="140" height="8" as="geometry"/></mxCell><mxCell id="UXqfiRhYJ7-DMKqVHL_M-58" value="+" style="text;strokeColor=none;fillColor=none;align=left;verticalAlign=top;spacingLeft=4;spacingRight=4;overflow=hidden;rotatable=0;points=[[0,0.5],[1,0.5]];portConstraint=eastwest;" parent="UXqfiRhYJ7-DMKqVHL_M-55" vertex="1"><mxGeometry y="60" width="140" height="26" as="geometry"/></mxCell><mxCell id="UXqfiRhYJ7-DMKqVHL_M-59" value="tbl_prod" style="shape=cylinder3;whiteSpace=wrap;html=1;boundedLbl=1;backgroundOutline=1;size=15;" parent="1" vertex="1"><mxGeometry x="2480" y="1480" width="60" height="80" as="geometry"/></mxCell><mxCell id="UXqfiRhYJ7-DMKqVHL_M-60" value="tbl_mem" style="shape=cylinder3;whiteSpace=wrap;html=1;boundedLbl=1;backgroundOutline=1;size=15;" parent="1" vertex="1"><mxGeometry x="2480" y="1880" width="60" height="80" as="geometry"/></mxCell><mxCell id="UXqfiRhYJ7-DMKqVHL_M-64" value="Model" style="shape=umlFrame;whiteSpace=wrap;html=1;" parent="1" vertex="1"><mxGeometry x="1960" y="2250" width="440" height="160" as="geometry"/></mxCell><mxCell id="UXqfiRhYJ7-DMKqVHL_M-65" value="AuthService" style="swimlane;fontStyle=1;align=center;verticalAlign=top;childLayout=stackLayout;horizontal=1;startSize=26;horizontalStack=0;resizeParent=1;resizeParentMax=0;resizeLast=0;collapsible=1;marginBottom=0;" parent="1" vertex="1"><mxGeometry x="2000" y="2298" width="140" height="86" as="geometry"/></mxCell><mxCell id="UXqfiRhYJ7-DMKqVHL_M-66" value="-" style="text;strokeColor=none;fillColor=none;align=left;verticalAlign=top;spacingLeft=4;spacingRight=4;overflow=hidden;rotatable=0;points=[[0,0.5],[1,0.5]];portConstraint=eastwest;" parent="UXqfiRhYJ7-DMKqVHL_M-65" vertex="1"><mxGeometry y="26" width="140" height="26" as="geometry"/></mxCell><mxCell id="UXqfiRhYJ7-DMKqVHL_M-67" value="" style="line;strokeWidth=1;fillColor=none;align=left;verticalAlign=middle;spacingTop=-1;spacingLeft=3;spacingRight=3;rotatable=0;labelPosition=right;points=[];portConstraint=eastwest;strokeColor=inherit;" parent="UXqfiRhYJ7-DMKqVHL_M-65" vertex="1"><mxGeometry y="52" width="140" height="8" as="geometry"/></mxCell><mxCell id="UXqfiRhYJ7-DMKqVHL_M-68" value="+" style="text;strokeColor=none;fillColor=none;align=left;verticalAlign=top;spacingLeft=4;spacingRight=4;overflow=hidden;rotatable=0;points=[[0,0.5],[1,0.5]];portConstraint=eastwest;" parent="UXqfiRhYJ7-DMKqVHL_M-65" vertex="1"><mxGeometry y="60" width="140" height="26" as="geometry"/></mxCell><mxCell id="c67etOE8xW-VEhWZTs1y-7" value="Use" style="html=1;verticalAlign=bottom;endArrow=open;dashed=1;endSize=8;rounded=0;" parent="1" source="UXqfiRhYJ7-DMKqVHL_M-17" target="UXqfiRhYJ7-DMKqVHL_M-21" edge="1"><mxGeometry relative="1" as="geometry"><mxPoint x="2120" y="1980" as="sourcePoint"/><mxPoint x="2040" y="1980" as="targetPoint"/></mxGeometry></mxCell><mxCell id="c67etOE8xW-VEhWZTs1y-8" value="Use" style="html=1;verticalAlign=bottom;endArrow=open;dashed=1;endSize=8;rounded=0;" parent="1" source="UXqfiRhYJ7-DMKqVHL_M-35" target="UXqfiRhYJ7-DMKqVHL_M-39" edge="1"><mxGeometry relative="1" as="geometry"><mxPoint x="2530" y="1700" as="sourcePoint"/><mxPoint x="2530" y="1734" as="targetPoint"/></mxGeometry></mxCell><mxCell id="c67etOE8xW-VEhWZTs1y-9" value="Use" style="html=1;verticalAlign=bottom;endArrow=open;dashed=1;endSize=8;rounded=0;" parent="1" source="WcthcpOgER5yJWUGCfEw-9" target="UXqfiRhYJ7-DMKqVHL_M-5" edge="1"><mxGeometry relative="1" as="geometry"><mxPoint x="2280" y="1576" as="sourcePoint"/><mxPoint x="2280" y="1610" as="targetPoint"/></mxGeometry></mxCell><mxCell id="c67etOE8xW-VEhWZTs1y-18" style="rounded=0;orthogonalLoop=1;jettySize=auto;html=1;endArrow=diamondThin;endFill=1;endSize=12;" parent="1" source="UXqfiRhYJ7-DMKqVHL_M-1" target="UXqfiRhYJ7-DMKqVHL_M-31" edge="1"><mxGeometry relative="1" as="geometry"><mxPoint x="2150" y="1933" as="sourcePoint"/><mxPoint x="2210" y="1933" as="targetPoint"/></mxGeometry></mxCell><mxCell id="c67etOE8xW-VEhWZTs1y-19" style="rounded=0;orthogonalLoop=1;jettySize=auto;html=1;endArrow=diamondThin;endFill=1;endSize=12;" parent="1" target="UXqfiRhYJ7-DMKqVHL_M-65" edge="1"><mxGeometry relative="1" as="geometry"><mxPoint x="1720" y="1930" as="sourcePoint"/><mxPoint x="2010" y="1933" as="targetPoint"/></mxGeometry></mxCell><mxCell id="c67etOE8xW-VEhWZTs1y-20" style="rounded=0;orthogonalLoop=1;jettySize=auto;html=1;endArrow=diamondThin;endFill=1;endSize=12;" parent="1" target="UXqfiRhYJ7-DMKqVHL_M-50" edge="1"><mxGeometry relative="1" as="geometry"><mxPoint x="1720" y="1930" as="sourcePoint"/><mxPoint x="2010" y="2343.695652173913" as="targetPoint"/><Array as="points"><mxPoint x="1760" y="2240"/></Array></mxGeometry></mxCell><mxCell id="c67etOE8xW-VEhWZTs1y-21" style="rounded=0;orthogonalLoop=1;jettySize=auto;html=1;endArrow=diamondThin;endFill=1;endSize=12;entryX=0;entryY=0.5;entryDx=0;entryDy=0;" parent="1" source="UXqfiRhYJ7-DMKqVHL_M-65" target="UXqfiRhYJ7-DMKqVHL_M-18" edge="1"><mxGeometry relative="1" as="geometry"><mxPoint x="1700" y="2320.304347826087" as="sourcePoint"/><mxPoint x="2020" y="2353.695652173913" as="targetPoint"/></mxGeometry></mxCell><mxCell id="c67etOE8xW-VEhWZTs1y-22" style="edgeStyle=orthogonalEdgeStyle;rounded=0;orthogonalLoop=1;jettySize=auto;html=1;endArrow=diamondThin;endFill=1;endSize=12;" parent="1" source="UXqfiRhYJ7-DMKqVHL_M-9" target="WcthcpOgER5yJWUGCfEw-9" edge="1"><mxGeometry relative="1" as="geometry"><mxPoint x="2150" y="1533" as="sourcePoint"/><mxPoint x="2210" y="1533" as="targetPoint"/></mxGeometry></mxCell><mxCell id="c67etOE8xW-VEhWZTs1y-23" style="rounded=0;orthogonalLoop=1;jettySize=auto;html=1;endArrow=diamondThin;endFill=1;endSize=12;" parent="1" source="WcthcpOgER5yJWUGCfEw-4" target="UXqfiRhYJ7-DMKqVHL_M-9" edge="1"><mxGeometry relative="1" as="geometry"><mxPoint x="1290" y="1653" as="sourcePoint"/><mxPoint x="1330" y="1653" as="targetPoint"/></mxGeometry></mxCell><mxCell id="c67etOE8xW-VEhWZTs1y-24" style="edgeStyle=none;rounded=0;orthogonalLoop=1;jettySize=auto;html=1;endArrow=none;endFill=0;endSize=12;" parent="1" source="UXqfiRhYJ7-DMKqVHL_M-18" target="UXqfiRhYJ7-DMKqVHL_M-59" edge="1"><mxGeometry relative="1" as="geometry"/></mxCell><mxCell id="neCsK_CRDY0FgDpS9Emq-1" style="edgeStyle=orthogonalEdgeStyle;rounded=0;orthogonalLoop=1;jettySize=auto;html=1;entryX=0;entryY=0.5;entryDx=0;entryDy=0;" edge="1" parent="1" source="WcthcpOgER5yJWUGCfEw-14" target="UXqfiRhYJ7-DMKqVHL_M-14"><mxGeometry relative="1" as="geometry"/></mxCell></root></mxGraphModel></diagram><diagram id="KBPRqG-02jAeLX31tPXi" name="ERD"><mxGraphModel dx="1422" dy="728" grid="1" gridSize="10" guides="1" tooltips="1" connect="1" arrows="1" fold="1" page="1" pageScale="1" pageWidth="827" pageHeight="1169" math="0" shadow="0"><root><mxCell id="0"/><mxCell id="1" parent="0"/></root></mxGraphModel></diagram></mxfile>